<svg width="31" height="31" viewBox="0 0 31 31" fill="none" xmlns="http://www.w3.org/2000/svg">
<path d="M9.05013 0.355713C4.45971 0.355713 0.725098 4.09032 0.725098 8.68074V22.0008C0.725098 26.5912 4.45971 30.3258 9.05013 30.3258H22.3702C26.9606 30.3258 30.6952 26.5912 30.6952 22.0008V8.68074C30.6952 4.09032 26.9606 0.355713 22.3702 0.355713H9.05013ZM9.05013 3.68572H22.3702C25.1241 3.68572 27.3652 5.92682 27.3652 8.68074V22.0008C27.3652 24.7547 25.1241 26.9958 22.3702 26.9958H9.05013C6.29621 26.9958 4.05511 24.7547 4.05511 22.0008V8.68074C4.05511 5.92682 6.29621 3.68572 9.05013 3.68572ZM24.0352 5.35073C23.5936 5.35073 23.1701 5.52615 22.8578 5.8384C22.5456 6.15065 22.3702 6.57415 22.3702 7.01574C22.3702 7.45732 22.5456 7.88082 22.8578 8.19307C23.1701 8.50532 23.5936 8.68074 24.0352 8.68074C24.4768 8.68074 24.9003 8.50532 25.2125 8.19307C25.5248 7.88082 25.7002 7.45732 25.7002 7.01574C25.7002 6.57415 25.5248 6.15065 25.2125 5.8384C24.9003 5.52615 24.4768 5.35073 24.0352 5.35073ZM15.7101 7.01574C11.1197 7.01574 7.38512 10.7503 7.38512 15.3408C7.38512 19.9312 11.1197 23.6658 15.7101 23.6658C20.3006 23.6658 24.0352 19.9312 24.0352 15.3408C24.0352 10.7503 20.3006 7.01574 15.7101 7.01574ZM15.7101 10.3457C18.4641 10.3457 20.7052 12.5868 20.7052 15.3408C20.7052 18.0947 18.4641 20.3358 15.7101 20.3358C12.9562 20.3358 10.7151 18.0947 10.7151 15.3408C10.7151 12.5868 12.9562 10.3457 15.7101 10.3457Z" fill="#F2EDE7"/>
</svg>
