<svg width="42" height="41" viewBox="0 0 42 41" fill="none" xmlns="http://www.w3.org/2000/svg">
<path d="M32.8645 5.60077H9.25937C7.39625 5.60077 5.88721 7.10981 5.88721 8.97293V32.5781C5.88721 34.4412 7.39625 35.9502 9.25937 35.9502H32.8645C34.7276 35.9502 36.2367 34.4412 36.2367 32.5781V8.97293C36.2367 7.10981 34.7276 5.60077 32.8645 5.60077ZM16.0037 29.2059H11.7497V17.4033H16.0037V29.2059ZM13.8017 15.2401C12.5017 15.2401 11.6334 14.3735 11.6334 13.2168C11.6334 12.0601 12.5 11.1935 13.945 11.1935C15.245 11.1935 16.1133 12.0601 16.1133 13.2168C16.1133 14.3735 15.2466 15.2401 13.8017 15.2401ZM31.1784 29.2059H27.061V22.755C27.061 20.9711 25.9634 20.5597 25.552 20.5597C25.1406 20.5597 23.7681 20.8345 23.7681 22.755C23.7681 23.0298 23.7681 29.2059 23.7681 29.2059H19.5141V17.4033H23.7681V19.0506C24.3161 18.0896 25.4137 17.4033 27.4724 17.4033C29.5311 17.4033 31.1784 19.0506 31.1784 22.755V29.2059Z" fill="#F2EDE7"/>
</svg>
